<svg width="100%" height="auto" viewBox="0 0 1201 602" fill="none" xmlns="http://www.w3.org/2000/svg">
<mask id="path-1-inside-1_1_1712" fill="white">
<path fill-rule="evenodd" clip-rule="evenodd" d="M1187 15L1170 15V0H35V15L18 15L18 45L0 45V553H18V583H35V602H1170V583H1187V553H1201V45H1187V15Z"/>
</mask>
<path fill-rule="evenodd" clip-rule="evenodd" d="M1187 15L1170 15V0H35V15L18 15L18 45L0 45V553H18V583H35V602H1170V583H1187V553H1201V45H1187V15Z" fill="white" fill-opacity="0.1"/>
<path d="M1170 15H1169V16H1170V15ZM1187 15H1188V14H1187V15ZM1170 0H1171V-1H1170V0ZM35 0V-1H34V0H35ZM35 15V16H36V15H35ZM18 15V14H17V15H18ZM18 45V46H19V45H18ZM0 45L-2.11928e-07 44H-1V45H0ZM0 553H-1V554H0V553ZM18 553H19V552H18V553ZM18 583H17V584H18V583ZM35 583H36V582H35V583ZM35 602H34V603H35V602ZM1170 602V603H1171V602H1170ZM1170 583V582H1169V583H1170ZM1187 583V584H1188V583H1187ZM1187 553V552H1186V553H1187ZM1201 553V554H1202V553H1201ZM1201 45H1202V44H1201V45ZM1187 45H1186V46H1187V45ZM1170 16L1187 16V14L1170 14V16ZM1169 0V15H1171V0H1169ZM1170 -1H35V1H1170V-1ZM34 0V15H36V0H34ZM35 14L18 14V16L35 16V14ZM17 15L17 45H19L19 15H17ZM18 44L-2.11928e-07 44L2.11928e-07 46L18 46V44ZM-1 45V553H1V45H-1ZM0 554H18V552H0V554ZM17 553V583H19V553H17ZM18 584H35V582H18V584ZM34 583V602H36V583H34ZM35 603H1170V601H35V603ZM1171 602V583H1169V602H1171ZM1170 584H1187V582H1170V584ZM1188 583V553H1186V583H1188ZM1187 554H1201V552H1187V554ZM1202 553V45H1200V553H1202ZM1201 44H1187V46H1201V44ZM1188 45V15H1186V45H1188Z" fill="white" fill-opacity="0.2" mask="url(#path-1-inside-1_1_1712)"/>
</svg>