<svg width="100%" height="70" viewBox="0 0 648 70" fill="none" xmlns="http://www.w3.org/2000/svg" preserveAspectRatio="none">
<mask id="path-1-inside-1_379_1421" fill="white">
<path d="M630.198 11.4131H648V58.5879H630.198V70H8.90137V69.999H17.8018V58.5879H0V11.4131H17.8018V5.70703H8.90137V5.70605H17.8018V0H630.198V11.4131ZM648 70H639.099V69.999H648V70ZM648 5.70703H639.099V5.70605H648V5.70703Z"/>
</mask>
<path d="M630.198 11.4131H648V58.5879H630.198V70H8.90137V69.999H17.8018V58.5879H0V11.4131H17.8018V5.70703H8.90137V5.70605H17.8018V0H630.198V11.4131ZM648 70H639.099V69.999H648V70ZM648 5.70703H639.099V5.70605H648V5.70703Z" fill="#2B2621"/>
<path d="M630.198 11.4131H625.198V16.4131H630.198V11.4131ZM648 11.4131H653V6.41309H648V11.4131ZM648 58.5879V63.5879H653V58.5879H648ZM630.198 58.5879V53.5879H625.198V58.5879H630.198ZM630.198 70V75H635.198V70H630.198ZM8.90137 70H3.90137V75H8.90137V70ZM8.90137 69.999V64.999H3.90137V69.999H8.90137ZM17.8018 69.999V74.999H22.8018V69.999H17.8018ZM17.8018 58.5879H22.8018V53.5879H17.8018V58.5879ZM0 58.5879H-5V63.5879H0V58.5879ZM0 11.4131V6.41309H-5V11.4131H0ZM17.8018 11.4131V16.4131H22.8018V11.4131H17.8018ZM17.8018 5.70703H22.8018V0.707031H17.8018V5.70703ZM8.90137 5.70703H3.90137V10.707H8.90137V5.70703ZM8.90137 5.70605V0.706055H3.90137V5.70605H8.90137ZM17.8018 5.70605V10.7061H22.8018V5.70605H17.8018ZM17.8018 0V-5H12.8018V0H17.8018ZM630.198 0H635.198V-5H630.198V0ZM648 70V75H653V70H648ZM639.099 70H634.099V75H639.099V70ZM639.099 69.999V64.999H634.099V69.999H639.099ZM648 69.999H653V64.999H648V69.999ZM648 5.70703V10.707H653V5.70703H648ZM639.099 5.70703H634.099V10.707H639.099V5.70703ZM639.099 5.70605V0.706055H634.099V5.70605H639.099ZM648 5.70605H653V0.706055H648V5.70605ZM630.198 11.4131V16.4131H648V11.4131V6.41309H630.198V11.4131ZM648 11.4131H643V58.5879H648H653V11.4131H648ZM648 58.5879V53.5879H630.198V58.5879V63.5879H648V58.5879ZM630.198 58.5879H625.198V70H630.198H635.198V58.5879H630.198ZM630.198 70V65H8.90137V70V75H630.198V70ZM8.90137 70H13.9014V69.999H8.90137H3.90137V70H8.90137ZM8.90137 69.999V74.999H17.8018V69.999V64.999H8.90137V69.999ZM17.8018 69.999H22.8018V58.5879H17.8018H12.8018V69.999H17.8018ZM17.8018 58.5879V53.5879H0V58.5879V63.5879H17.8018V58.5879ZM0 58.5879H5V11.4131H0H-5V58.5879H0ZM0 11.4131V16.4131H17.8018V11.4131V6.41309H0V11.4131ZM17.8018 11.4131H22.8018V5.70703H17.8018H12.8018V11.4131H17.8018ZM17.8018 5.70703V0.707031H8.90137V5.70703V10.707H17.8018V5.70703ZM8.90137 5.70703H13.9014V5.70605H8.90137H3.90137V5.70703H8.90137ZM8.90137 5.70605V10.7061H17.8018V5.70605V0.706055H8.90137V5.70605ZM17.8018 5.70605H22.8018V0H17.8018H12.8018V5.70605H17.8018ZM17.8018 0V5H630.198V0V-5H17.8018V0ZM630.198 0H625.198V11.4131H630.198H635.198V0H630.198ZM648 70V65H639.099V70V75H648V70ZM639.099 70H644.099V69.999H639.099H634.099V70H639.099ZM639.099 69.999V74.999H648V69.999V64.999H639.099V69.999ZM648 69.999H643V70H648H653V69.999H648ZM648 5.70703V0.707031H639.099V5.70703V10.707H648V5.70703ZM639.099 5.70703H644.099V5.70605H639.099H634.099V5.70703H639.099ZM639.099 5.70605V10.7061H648V5.70605V0.706055H639.099V5.70605ZM648 5.70605H643V5.70703H648H653V5.70605H648Z" fill="#FFEEBE" mask="url(#path-1-inside-1_379_1421)"/>
<mask id="path-3-inside-2_379_1421" fill="white">
<path d="M626.445 10.5977H644V54.4023H626.445V65H22.5547V54.4023H5V10.5977H13.7773V5.29883H22.5547V0H626.445V10.5977ZM14.5371 12.8828H23.3145V7.58398H14.5371V12.8828Z"/>
</mask>
<path d="M626.445 10.5977H621.445V15.5977H626.445V10.5977ZM644 10.5977H649V5.59766H644V10.5977ZM644 54.4023V59.4023H649V54.4023H644ZM626.445 54.4023V49.4023H621.445V54.4023H626.445ZM626.445 65V70H631.445V65H626.445ZM22.5547 65H17.5547V70H22.5547V65ZM22.5547 54.4023H27.5547V49.4023H22.5547V54.4023ZM5 54.4023H0V59.4023H5V54.4023ZM5 10.5977V5.59766H0V10.5977H5ZM13.7773 10.5977V15.5977H18.7773V10.5977H13.7773ZM13.7773 5.29883V0.298828H8.77734V5.29883H13.7773ZM22.5547 5.29883V10.2988H27.5547V5.29883H22.5547ZM22.5547 0V-5H17.5547V0H22.5547ZM626.445 0H631.445V-5H626.445V0ZM14.5371 12.8828H9.53711V17.8828H14.5371V12.8828ZM23.3145 12.8828V17.8828H28.3145V12.8828H23.3145ZM23.3145 7.58398H28.3145V2.58398H23.3145V7.58398ZM14.5371 7.58398V2.58398H9.53711V7.58398H14.5371ZM626.445 10.5977V15.5977H644V10.5977V5.59766H626.445V10.5977ZM644 10.5977H639V54.4023H644H649V10.5977H644ZM644 54.4023V49.4023H626.445V54.4023V59.4023H644V54.4023ZM626.445 54.4023H621.445V65H626.445H631.445V54.4023H626.445ZM626.445 65V60H22.5547V65V70H626.445V65ZM22.5547 65H27.5547V54.4023H22.5547H17.5547V65H22.5547ZM22.5547 54.4023V49.4023H5V54.4023V59.4023H22.5547V54.4023ZM5 54.4023H10V10.5977H5H0V54.4023H5ZM5 10.5977V15.5977H13.7773V10.5977V5.59766H5V10.5977ZM13.7773 10.5977H18.7773V5.29883H13.7773H8.77734V10.5977H13.7773ZM13.7773 5.29883V10.2988H22.5547V5.29883V0.298828H13.7773V5.29883ZM22.5547 5.29883H27.5547V0H22.5547H17.5547V5.29883H22.5547ZM22.5547 0V5H626.445V0V-5H22.5547V0ZM626.445 0H621.445V10.5977H626.445H631.445V0H626.445ZM14.5371 12.8828V17.8828H23.3145V12.8828V7.88281H14.5371V12.8828ZM23.3145 12.8828H28.3145V7.58398H23.3145H18.3145V12.8828H23.3145ZM23.3145 7.58398V2.58398H14.5371V7.58398V12.584H23.3145V7.58398ZM14.5371 7.58398H9.53711V12.8828H14.5371H19.5371V7.58398H14.5371Z" fill="#F0C33A" fill-opacity="0.1" mask="url(#path-3-inside-2_379_1421)"/>
</svg>
