<svg width="100%" height="57" viewBox="0 0 137 57" preserveAspectRatio="none" fill="none" xmlns="http://www.w3.org/2000/svg">
<mask id="path-1-inside-1_439_91" fill="white">
<path d="M130.148 2.72656L132.887 2.72656V4.96289L137 4.96289V53.0059H132.899V54.6797H130.161V56.3525L6.99609 56.3525L6.99609 54.6797H4.27246V53H0.152344L0.152344 4.96289L4.25488 4.96289V2.72949L6.99512 2.72949L6.99512 0.492187L130.148 0.492187V2.72656ZM137 1.05176H136.99V0.492187H137V1.05176Z"/>
</mask>
<path d="M130.148 2.72656L132.887 2.72656V4.96289L137 4.96289V53.0059H132.899V54.6797H130.161V56.3525L6.99609 56.3525L6.99609 54.6797H4.27246V53H0.152344L0.152344 4.96289L4.25488 4.96289V2.72949L6.99512 2.72949L6.99512 0.492187L130.148 0.492187V2.72656ZM137 1.05176H136.99V0.492187H137V1.05176Z" fill="url(#paint0_linear_439_91)"/>
<path d="M130.148 2.72656L128.006 2.72656V4.86865L130.148 4.86865V2.72656ZM132.887 2.72656L135.029 2.72656V0.584473L132.887 0.584473V2.72656ZM132.887 4.96289H130.745V7.10498H132.887V4.96289ZM137 4.96289L139.142 4.96289V2.8208L137 2.8208V4.96289ZM137 53.0059V55.1479H139.142V53.0059H137ZM132.899 53.0059V50.8638H130.757V53.0059H132.899ZM132.899 54.6797V56.8218H135.042V54.6797H132.899ZM130.161 54.6797V52.5376H128.019V54.6797H130.161ZM130.161 56.3525V58.4946H132.303V56.3525H130.161ZM6.99609 56.3525H4.854V58.4946H6.99609V56.3525ZM6.99609 54.6797H9.13818L9.13818 52.5376H6.99609V54.6797ZM4.27246 54.6797H2.13037L2.13037 56.8218H4.27246L4.27246 54.6797ZM4.27246 53H6.41455L6.41455 50.8579H4.27246L4.27246 53ZM0.152344 53H-1.98975L-1.98975 55.1421H0.152344L0.152344 53ZM0.152344 4.96289L0.152344 2.8208L-1.98975 2.8208L-1.98975 4.96289L0.152344 4.96289ZM4.25488 4.96289L4.25488 7.10498L6.39697 7.10498L6.39697 4.96289L4.25488 4.96289ZM4.25488 2.72949L4.25488 0.587403L2.11279 0.587403L2.11279 2.72949L4.25488 2.72949ZM6.99512 2.72949V4.87158H9.13721L9.13721 2.72949L6.99512 2.72949ZM6.99512 0.492187L6.99512 -1.6499L4.85303 -1.6499L4.85303 0.492187L6.99512 0.492187ZM130.148 0.492187L132.291 0.492187V-1.6499L130.148 -1.6499V0.492187ZM137 1.05176V3.19385L139.142 3.19385V1.05176L137 1.05176ZM136.99 1.05176L134.848 1.05176V3.19385L136.99 3.19385V1.05176ZM136.99 0.492187V-1.6499L134.848 -1.6499V0.492187L136.99 0.492187ZM137 0.492187L139.142 0.492187V-1.6499L137 -1.6499V0.492187ZM130.148 2.72656V4.86865H132.887V2.72656V0.584473L130.148 0.584473V2.72656ZM132.887 2.72656L130.745 2.72656V4.96289H132.887L135.029 4.96289V2.72656L132.887 2.72656ZM132.887 4.96289V7.10498L137 7.10498V4.96289V2.8208L132.887 2.8208V4.96289ZM137 4.96289H134.858V53.0059H137H139.142V4.96289L137 4.96289ZM137 53.0059V50.8638H132.899V53.0059V55.1479H137V53.0059ZM132.899 53.0059H130.757V54.6797H132.899H135.042V53.0059H132.899ZM132.899 54.6797V52.5376H130.161V54.6797V56.8218H132.899V54.6797ZM130.161 54.6797H128.019V56.3525H130.161H132.303V54.6797H130.161ZM130.161 56.3525V54.2104L6.99609 54.2104L6.99609 56.3525V58.4946L130.161 58.4946V56.3525ZM6.99609 56.3525H9.13818V54.6797H6.99609H4.854L4.854 56.3525H6.99609ZM6.99609 54.6797V52.5376H4.27246V54.6797L4.27246 56.8218H6.99609L6.99609 54.6797ZM4.27246 54.6797H6.41455V53H4.27246H2.13037V54.6797H4.27246ZM4.27246 53L4.27246 50.8579H0.152344L0.152344 53L0.152344 55.1421H4.27246V53ZM0.152344 53H2.29443L2.29443 4.96289L0.152344 4.96289L-1.98975 4.96289L-1.98975 53H0.152344ZM0.152344 4.96289L0.152344 7.10498L4.25488 7.10498L4.25488 4.96289V2.8208L0.152344 2.8208L0.152344 4.96289ZM4.25488 4.96289L6.39697 4.96289V2.72949L4.25488 2.72949L2.11279 2.72949L2.11279 4.96289L4.25488 4.96289ZM4.25488 2.72949V4.87158L6.99512 4.87158V2.72949L6.99512 0.587403L4.25488 0.587403L4.25488 2.72949ZM6.99512 2.72949L9.13721 2.72949V0.492187L6.99512 0.492187L4.85303 0.492187L4.85303 2.72949L6.99512 2.72949ZM6.99512 0.492187L6.99512 2.63428L130.148 2.63428V0.492187V-1.6499L6.99512 -1.6499L6.99512 0.492187ZM130.148 0.492187L128.006 0.492187V2.72656L130.148 2.72656L132.291 2.72656V0.492187L130.148 0.492187ZM137 1.05176V-1.09033H136.99V1.05176V3.19385H137V1.05176ZM136.99 1.05176L139.132 1.05176V0.492187L136.99 0.492187L134.848 0.492187V1.05176L136.99 1.05176ZM136.99 0.492187V2.63428H137V0.492187V-1.6499H136.99V0.492187ZM137 0.492187L134.858 0.492187V1.05176L137 1.05176L139.142 1.05176V0.492187L137 0.492187Z" fill="url(#paint1_linear_439_91)" mask="url(#path-1-inside-1_439_91)"/>
<defs>
<linearGradient id="paint0_linear_439_91" x1="68.5762" y1="0.492187" x2="68.5762" y2="56.3525" gradientUnits="userSpaceOnUse">
<stop stop-color="#3C3C3C"/>
<stop offset="1" stop-color="#212121"/>
</linearGradient>
<linearGradient id="paint1_linear_439_91" x1="68.5762" y1="0.492187" x2="68.5762" y2="56.3525" gradientUnits="userSpaceOnUse">
<stop stop-color="white"/>
<stop offset="1" stop-color="#9E9E9E"/>
</linearGradient>
</defs>
</svg>
